<?xml version="1.0" encoding="utf-8"?>
<!-- Generator: Adobe Illustrator 26.0.2, SVG Export Plug-In . SVG Version: 6.00 Build 0)  -->
<svg version="1.1" id="圖層_1" xmlns="http://www.w3.org/2000/svg" xmlns:xlink="http://www.w3.org/1999/xlink" x="0px" y="0px"
	 viewBox="0 0 20 20" style="enable-background:new 0 0 20 20;" xml:space="preserve">
<path d="M10-0.1C4.4-0.1-0.1,4.4-0.1,10S4.4,20.1,10,20.1S20.1,15.6,20.1,10S15.6-0.1,10-0.1z M18,6.1h-2.7
	c-0.4-1.8-1.1-3.2-1.9-4.3C15.4,2.6,17,4.1,18,6.1z M18.9,10c0,1-0.2,1.9-0.4,2.7h-3c0.1-0.9,0.2-1.8,0.2-2.7c0-1-0.1-1.9-0.2-2.7h3
	C18.7,8.1,18.9,9,18.9,10z M5.5,10c0-1,0.1-1.9,0.2-2.7h3.7v5.5H5.7C5.6,11.9,5.5,11,5.5,10z M10.6,1.2c1.5,0.4,2.8,2.3,3.4,4.9
	h-3.4V1.2z M9.4,1.2v4.9H6C6.6,3.5,7.9,1.6,9.4,1.2z M9.4,13.9v4.9c-1.5-0.4-2.8-2.3-3.4-4.9H9.4z M10.6,18.8v-4.9H14
	C13.4,16.5,12.1,18.4,10.6,18.8z M10.6,12.7V7.3h3.7c0.1,0.9,0.2,1.8,0.2,2.7c0,1-0.1,1.9-0.2,2.7H10.6z M6.7,1.8
	c-0.9,1-1.6,2.5-2,4.3H2C3,4.1,4.6,2.6,6.7,1.8z M1.5,7.3h3C4.4,8.1,4.3,9,4.3,10s0.1,1.9,0.2,2.7h-3C1.3,11.9,1.1,11,1.1,10
	S1.3,8.1,1.5,7.3z M2,13.9h2.7c0.4,1.8,1.1,3.2,1.9,4.3C4.6,17.4,3,15.9,2,13.9z M13.3,18.2c0.9-1.1,1.5-2.6,1.9-4.3H18
	C17,15.9,15.4,17.4,13.3,18.2z"/>
</svg>
